/vscmnt/brussel_pixiu_data/_data_brussel/112/vsc11236/PredSimResults/SUBJ09opt3D/trackIG/worker_04.mot
version=1
nRows=4
nColumns=50
inDegrees=yes
endheader
                time	         pelvis_tilt	         pelvis_list	     pelvis_rotation	           pelvis_tx	           pelvis_ty	           pelvis_tz	       hip_flexion_r	     hip_adduction_r	      hip_rotation_r	        knee_angle_r	       ankle_angle_r	         mtp_angle_r	       hip_flexion_l	     hip_adduction_l	      hip_rotation_l	        knee_angle_l	       ankle_angle_l	         mtp_angle_l	    lumbar_extension	      lumbar_bending	     lumbar_rotation	 ercspn_r/activation	 intobl_r/activation	 extobl_r/activation	    abd_r/activation	    add_r/activation	hamstrings_r/activation	bifemsh_r/activation	glut_max_r/activation	iliopsoas_r/activation	rect_fem_r/activation	  vasti_r/activation	gastroc_r/activation	 soleus_r/activation	tib_ant_r/activation	 ercspn_l/activation	 intobl_l/activation	 extobl_l/activation	    abd_l/activation	    add_l/activation	hamstrings_l/activation	bifemsh_l/activation	glut_max_l/activation	iliopsoas_l/activation	rect_fem_l/activation	  vasti_l/activation	gastroc_l/activation	 soleus_l/activation	tib_ant_l/activation	
          0.00000000	         -2.74648921	         -0.54145659	          7.69062566	          0.00000000	          1.00117449	         -0.00505218	         23.17826206	         -1.24768134	         -9.96415216	         -1.38648322	          1.53101641	          0.23120399	        -10.12409408	         -2.68317783	        -10.15066994	        -13.72555959	          6.93444460	         31.71269845	        -13.63270183	         -2.76621057	         -7.23555731	          0.01383979	          0.20034602	          0.05389229	          0.01000003	          0.22312117	          0.03596823	          0.01100467	          0.01253661	          0.08650975	          0.02640788	          0.01733944	          0.01000154	          0.01000017	          0.28642930	          0.01000047	          0.01000023	          0.01000012	          0.04868668	          0.01000043	          0.02155112	          0.07088285	          0.03097381	          0.01000090	          0.01000320	          0.01000374	          0.22727051	          0.24247197	          0.01000007	
          0.01522315	         -2.85814235	         -0.60962103	          7.56326657	          0.01844744	          0.99915542	         -0.00366596	         22.45189558	         -0.97652181	        -10.20994059	         -1.66937985	          0.99396395	          0.20923660	        -10.64060983	         -3.01177303	        -10.82706739	        -14.50651118	          6.14957447	         33.10515670	        -13.04019982	         -2.28944852	         -7.39356173	          0.01103913	          0.19306861	          0.04298597	          0.04406861	          0.17796757	          0.04543747	          0.02747619	          0.01000054	          0.06900252	          0.02106366	          0.01383069	          0.01253866	          0.01253718	          0.32349588	          0.01000111	          0.01000017	          0.01001687	          0.03883381	          0.01000113	          0.03212181	          0.05653833	          0.02470561	          0.01000117	          0.01000073	          0.02000105	          0.20738062	          0.22281300	          0.01000006	
          0.03044629	         -2.94964146	         -0.73212724	          7.39133564	          0.03724042	          0.99752482	         -0.00219844	         21.62661535	         -0.64840144	        -10.52567763	         -1.79843179	          0.18688899	          0.20262861	        -10.99899826	         -3.43671669	        -11.52135001	        -15.61924117	          5.17603095	         34.51656876	        -12.42344730	         -1.73243865	         -7.51294666	          0.01000071	          0.15399679	          0.03428680	          0.08221482	          0.14195214	          0.05705102	          0.02191684	          0.03624003	          0.05503827	          0.01680097	          0.01103248	          0.01000128	          0.01000012	          0.36925936	          0.01000027	          0.01000008	          0.01000041	          0.03097490	          0.01000025	          0.03015836	          0.04509673	          0.01970590	          0.01000085	          0.01000081	          0.02030512	          0.16852878	          0.19961559	          0.01000008	
          0.04566944	         -3.02407867	         -0.88375336	          7.17509839	          0.05602100	          0.99657857	         -0.00063272	         20.81823646	         -0.29130345	        -10.91881999	         -1.98539715	         -0.54574374	          0.17357513	        -11.09912244	         -3.94868133	        -12.22344720	        -17.19266279	          3.96910899	         35.85895247	        -11.82654917	         -1.12797064	         -7.59335249	          0.01000997	          0.12283199	          0.02734811	          0.12215271	          0.11322559	          0.05847898	          0.01748212	          0.04704404	          0.04390002	          0.01340096	          0.02619481	          0.01000064	          0.01000033	          0.39331711	          0.02371378	          0.01000009	          0.01000035	          0.02470642	          0.01000047	          0.04074684	          0.03597059	          0.01571799	          0.01000681	          0.01000148	          0.02284173	          0.13442312	          0.16449520	          0.01000011	
